<?xml version="1.0" encoding="UTF-8"?><svg id="Layer_1" xmlns="http://www.w3.org/2000/svg" viewBox="0 0 355 255.85"><defs><style>.cls-1{fill:#fff;}</style></defs><path class="cls-1" d="M166.63,109.05c0,4.5,3.65,8.15,8.15,8.15s8.15-3.65,8.15-8.15-3.65-8.15-8.15-8.15-8.15,3.65-8.15,8.15Z"/><path class="cls-1" d="M232.95,95.31c-.09.04-.24.11-.44.2-13.41,6.27-25.12,11.43-35.33,15.63-27.59,11.35-44.21,15.77-53.57,16.59-6.72.59-9.71-.68-10.34-2.58-.18-.56-.29-1.09-.3-1.62-.04-1.8.96-3.52,3.45-5.59,11.07-11,45.55-22.03,69.84-28.77,2.37-.66,4.63-1.27,6.77-1.84.09-.03.18-.05.28-.07,3.58-.95,6.79-1.77,9.49-2.46,5.54-1.38,8.93-2.16,8.93-2.16l-2.21-13.97-4.09-25.79v-.06s-.01,0-.01,0c0,0,0,0,0,0h0s0,0,0,0c-55.53,48.39-103.48,0-103.48,0h0s0,0,0,0c0,0,0,0,0,0v29.2c10.53,12.29,29.67,17.6,40.81,19.73,2.73.71,5.62,1.17,8.68,1.3-21.04,8.51-44.26,16.56-45.87,34.49-1.37,15.23,12.43,19.54,23.95,19.42h0s83.56,0,83.56,0v-51.73s-.04.02-.11.05Z"/><polygon class="cls-1" points="211.04 206.33 215.67 209.17 218.25 204.85 213.81 202.09 211.04 206.33"/><path class="cls-1" d="M226.82,188.13c-1.78-.37-3.48-.78-5.13-1.23-1.65-.46-3.23-.94-4.76-1.42-1.53-.48-2.98-.92-4.37-1.31-1.4-.39-2.73-.73-4.01-.98-1.26-.25-2.45-.39-3.57-.39-1.21,0-2.33.18-3.36.53-1.03.36-1.97.98-2.81,1.83-.85.85-1.62,1.99-2.27,3.41-.67,1.42-1.26,3.18-1.74,5.31l.53.21c.37-1.3.89-2.38,1.56-3.23.69-.85,1.46-1.53,2.34-2.04.89-.5,1.83-.85,2.86-1.07,1.01-.2,2.06-.3,3.13-.3,1.17,0,2.33.09,3.48.28,1.15.2,2.22.44,3.18.71.98.27,1.83.55,2.56.83.73.28,1.24.51,1.58.69-1.46,1.05-2.98,1.92-4.55,2.63-1.58.71-3.23,1.3-4.95,1.74s-3.55.78-5.47.99c-1.59.2-3.25.33-4.97.4-2.08-.08-4.1-.05-5.9.02-.17,0-.34.02-.5.02-.15,0-.3.02-.45.02-3.57.18-6.06.53-6.06.53.06-.23.16-.5.27-.78.46-1.72.69-3.41.69-5.06,0-1.06-.09-2.36-.28-3.91-.18-1.53-.48-3.37-.89-5.5-.21-1.13-.4-2.13-.59-2.96-.16-.83-.3-1.58-.41-2.24-.11-.64-.19-1.23-.25-1.78,0,0-.25-1.58-.4-3.71-.18-2.04-.29-4.56-.07-6.68l-2.13,3.48s-.66,6.11.41,11.82c0,.06.02.09.02.13.22,1.33.5,2.86.87,4.6.21,1.07.41,2.08.59,3,.16.92.3,1.83.41,2.69.11.85.19,1.67.25,2.46.07.8.09,1.58.09,2.36,0,1.07-.06,2.13-.16,3.19-.11,1.07-.27,2.18-.46,3.38l.45.23c.79-.04,1.54-.08,2.25-.12,1.08-.05,2.07-.08,2.95-.1.09,0,.19,0,.28,0,.17,0,.35,0,.53,0h.18c.48-.01.98-.02,1.48-.02.31,0,.64,0,.96,0,1.47,0,2.91,0,4.03,0h0s1.78.01,1.78.01c.04,0,.08,0,.12,0,.2,0,.32,0,.32,0h0c2.3-.03,4.34-.22,6.1-.59,1.86-.37,3.55-.87,5.04-1.46,1.49-.59,2.86-1.23,4.1-1.9,1.24-.67,2.49-1.3,3.75-1.9,1.26-.59,2.59-1.08,4-1.46,1.4-.39,3-.59,4.79-.59,1.69,0,3.57.21,5.66.62l2.41-4.63c-1.88-.18-3.71-.44-5.47-.8Z"/><path class="cls-1" d="M128.85,198.46c-.14.99-.34,2.03-.58,3.13l.31.18c.85-1.76,1.52-3.43,2.04-5,.54-1.61.83-3.17.89-4.71.04-.99,0-2.21-.15-3.66-.12-1.43-.36-3.17-.69-5.17-.15-.85-.26-1.62-.39-2.29-.01-.08-.05-.17-.04-.25-.56-2.49-.76-5.21-.78-7.56v-.02c-.01-.1,0-.2,0-.3-.02-.88,0-1.71.02-2.44v-.13c.02-.85.05-1.72.15-2.53.02-.08.02-.16.03-.23.03-.33.06-.51.06-.51l-2.25,3.17s-.47,3.05-.36,6.79c.02,1.38.12,2.83.35,4.26,0,.05.01.08.01.12.17,1.25.4,2.69.71,4.32.18,1,.33,1.95.48,2.82.13.87.24,1.72.31,2.52.08.8.14,1.56.16,2.31.04.75.03,1.48,0,2.21-.04.99-.13,1.99-.27,2.98Z"/><path class="cls-1" d="M154.81,186.3c-.32-.82-.69-1.63-1.15-2.41-.44-.8-.94-1.51-1.51-2.15-.55-.62-1.15-1.12-1.79-1.51-.64-.37-1.31-.57-2.01-.57-.57,0-1.1.25-1.63.71-.51.48-1.01,1.08-1.51,1.83-.48.75-.92,1.58-1.33,2.5-.39.92-.75,1.83-1.03,2.7-.28.89-.51,1.7-.69,2.45-.16.75-.25,1.33-.25,1.74,0,3.37,1.78,5.04,5.34,5.04.89,0,1.58-.09,2.11-.27.53-.2.98-.48,1.33-.85.37-.36.69-.83,1.01-1.42.28-.55.62-1.21,1.01-1.97,0-.02,0-.04.02-.05.67.85,1.01,1.78,1.01,2.79,0,.78-.18,1.58-.55,2.38s-.87,1.6-1.49,2.38c-.64.8-1.37,1.56-2.2,2.31-.83.75-1.72,1.44-2.66,2.1-.94.66-1.9,1.26-2.88,1.81-.96.55-1.92,1.03-2.82,1.42-.91.41-1.76.71-2.56.94-.78.21-1.46.32-2.01.32-1.21,0-3.89-.98-8.08-2.95l-.2.41c2.99,7.22,7.86,7.73,11.81,6.58.02,0,.05.02.07.02.11-.05.21-.1.32-.14,3.39-1.09,6.01-3.3,6.01-3.3h-.03c6.23-4.4,9.34-10.53,9.34-18.41,0-.57-.09-1.24-.27-2.02-.18-.78-.43-1.58-.75-2.4ZM150.69,190.54c-.55.11-1.15.16-1.81.16-.57,0-1.12-.04-1.67-.12-.57-.09-1.07-.23-1.53-.41-.46-.2-.83-.43-1.12-.71-.28-.28-.43-.62-.43-1.01,0-.98.23-1.65.71-2.08.46-.41,1.05-.62,1.72-.62.59,0,1.21.12,1.83.37.64.25,1.23.57,1.74.98.51.41.94.87,1.28,1.37.34.51.5,1.03.5,1.54-.27.25-.67.41-1.23.53Z"/><path class="cls-1" d="M176.24,191.62c-1.83-7.17-5.1-10.76-9.84-10.76-.64,0-1.21.11-1.7.3-.73,1.05-1.08,2.13-1.08,3.28,0,.48.05.96.2,1.47.6-.23,1.23-.34,1.83-.34.78,0,1.51.16,2.2.5.67.34,1.31.78,1.92,1.35.6.57,1.15,1.21,1.67,1.94.5.73.96,1.49,1.35,2.27.41.78.75,1.58,1.05,2.38.3.82.53,1.56.69,2.26-2.81.5-5.08.71-6.91.73-.53-.02-1.07-.05-1.6-.11-.87-.09-1.7-.23-2.47-.43-.76-.18-1.47-.43-2.1-.73-.16-.07-.3-.14-.44-.23-.02,0-.02-.02-.02-.02-.73-.59-1.01-1.3-1.1-1.92,0-.02-.02-.04,0-.05-.11-.82.14-1.49.18-1.63l.02-.02-.37-.04c-.69,1.76-1.03,3.27-1.03,4.51s.25,2.29.73,3.02c.48.73,1.14,1.26,1.94,1.62.82.34,1.76.55,2.82.64,1.07.07,2.18.11,3.36.11,1.37,0,2.63-.07,3.8-.21,1.17-.14,2.17-.44,3.02-.92.85-.46,1.51-1.14,1.99-2.01.48-.89.73-2.06.73-3.53.02-.14-.05-.48-.2-1.05-.14-.57-.36-1.37-.62-2.38Z"/><polygon class="cls-1" points="223.02 168.43 223.02 166.97 191.37 173.41 191.73 174.45 223.02 168.43"/></svg>